<svg width="100" height="100" viewBox="0 0 100 100" fill="none" xmlns="http://www.w3.org/2000/svg">
<path d="M15.3797 70.0299C-6.36892 41.923 -3.11767 15.1169 22.8939 8.54197C30.8419 6.51904 41.0299 8.83097 46.6655 13.889L49.5559 16.4899L53.8188 13.9609C78.4573 -0.923332 108.804 26.5332 95.9425 52.0387C84.2371 75.2323 46.1599 100.16 38.3566 89.7551C36.0442 86.6486 37.2002 86.2148 43.3418 87.7322C49.1945 89.1771 76.2173 65.189 82.9369 52.5448C91.0291 37.3711 89.4399 29.1341 76.5063 18.73C71.1597 14.467 62.8504 16.3452 56.3474 23.4262C51.2174 28.9175 45.8709 29.3512 41.4631 22.415C28.9637 2.90642 8.44293 18.3686 14.2956 42.8624C16.7523 52.978 19.426 58.0361 29.6136 71.4749C36.5503 80.5788 36.7664 81.0126 34.4545 82.2409C30.0468 84.6252 23.1829 80.218 15.3797 70.0299Z" fill="#4F45E4"/>
<path d="M69.0649 28.2683C65.5242 27.618 68.4865 23.644 71.8101 24.7999C74.5557 25.8117 78.3855 27.4737 79.9028 31.7362C81.5649 36.2158 78.2407 40.5511 76.3621 40.0455C74.7005 39.6118 74.1949 37.7331 74.4115 33.9039C74.6281 30.0741 72.6052 28.9182 69.0649 28.2683Z" fill="#4F45E4"/>
<path d="M77.1572 51.1712C72.4604 52.2553 68.9202 48.7146 71.0155 46.3303C72.6052 44.5963 78.6021 44.4516 80.336 46.186C81.781 47.7034 80.8422 50.3043 77.1572 51.1712Z" fill="#4F45E4"/>
<g clip-path="url(#clip0_602_26)">
<path d="M46.0266 45.3946L45.6915 42.4073C45.4831 40.5501 45.8703 38.663 46.762 37.1897C48.1587 34.8822 50.8413 34.8822 52.238 37.1897C53.1297 38.663 53.5169 40.5501 53.3085 42.4073L52.9734 45.3946L59.7368 49.8685C60.3227 50.2561 60.692 51.0403 60.692 51.8973C60.692 53.3559 59.6545 54.4376 58.5638 54.1163L52.1464 52.2262L51.7604 56.9004L55.112 60.6041C55.504 61.0374 55.73 61.6736 55.73 62.3437C55.73 63.9849 54.4409 65.0885 53.2866 64.4356L49.5 62.294L45.7134 64.4356C44.5592 65.0885 43.27 63.9849 43.27 62.3437C43.27 61.6736 43.496 61.0374 43.8881 60.6041L47.2396 56.9004L46.8536 52.2262L40.4363 54.1163C39.3455 54.4376 38.308 53.3559 38.308 51.8973C38.308 51.0403 38.6773 50.2561 39.2633 49.8685L46.0266 45.3946Z" fill="#4F45E4"/>
</g>
<defs>
<clipPath id="clip0_602_26">
<rect width="23" height="30" fill="white" transform="translate(38 35)"/>
</clipPath>
</defs>
</svg>
